<?xml version="1.0" encoding="utf-8"?>
<!-- Generator: Adobe Illustrator 24.2.1, SVG Export Plug-In . SVG Version: 6.00 Build 0)  -->
<svg version="1.1" id="Layer_1" xmlns="http://www.w3.org/2000/svg" xmlns:xlink="http://www.w3.org/1999/xlink" x="0px" y="0px"
	 viewBox="0 0 20 31" style="enable-background:new 0 0 20 31;" xml:space="preserve">
<style type="text/css">
	.st0{display:none;}
</style>
<g transform="translate(0,-952.36218)">
	<path d="M11,982.5l8.2-7.3c0.6-0.5,0.7-1.5,0.1-2.1c-0.5-0.6-1.5-0.6-2.1-0.1l-5.8,5.1v-23.9c0-0.8-0.6-1.5-1.5-1.5
		s-1.5,0.7-1.5,1.5v23.9l-5.8-5.1c-0.6-0.5-1.5-0.4-2.1,0.1c-0.5,0.6-0.5,1.5,0.1,2.1l8.2,7.3c0.2,0.2,0.6,0.4,1,0.4
		C10.4,982.9,10.7,982.8,11,982.5z"/>
</g>
<path class="st0" d="M12.4,26.5L10,28.9l-2.4-2.4c-0.3-0.3-0.7-0.3-1,0c-0.3,0.3-0.3,0.7,0,1l3,3c0.1,0.1,0.3,0.2,0.5,0.2
	s0.4-0.1,0.5-0.2l3-3c0.3-0.3,0.3-0.7,0-1C13.2,26.2,12.7,26.2,12.4,26.5z"/>
<path class="st0" d="M13.5,22.4c-0.3-0.3-0.7-0.3-1,0L10,24.8l-2.4-2.4c-0.3-0.3-0.7-0.3-1,0c-0.3,0.3-0.3,0.7,0,1l3,3
	c0.1,0.1,0.3,0.2,0.5,0.2s0.4-0.1,0.5-0.2l3-3C13.8,23.1,13.8,22.7,13.5,22.4z"/>
<path class="st0" d="M16.7,13.6V7c0-3.7-3-6.7-6.7-6.7S3.3,3.3,3.3,7v6.7c0,3.7,3,6.7,6.7,6.7S16.7,17.3,16.7,13.6z M10,18.8
	c-2.9,0-5.2-2.3-5.2-5.2V7c0-2.9,2.3-5.2,5.2-5.2s5.2,2.3,5.2,5.2v6.7C15.2,16.5,12.9,18.8,10,18.8z"/>
<path class="st0" d="M10,4.4c-0.4,0-0.7,0.3-0.7,0.7v2.2c0,0.4,0.3,0.7,0.7,0.7s0.7-0.3,0.7-0.7V5.1C10.7,4.7,10.4,4.4,10,4.4z"/>
</svg>
