<?xml version="1.0" encoding="utf-8"?>
<!-- Generator: Adobe Illustrator 24.0.0, SVG Export Plug-In . SVG Version: 6.00 Build 0)  -->
<svg version="1.1" xmlns="http://www.w3.org/2000/svg" xmlns:xlink="http://www.w3.org/1999/xlink" x="0px" y="0px"
	 viewBox="0 0 1004.41 382.04" style="enable-background:new 0 0 1004.41 382.04;" xml:space="preserve">
<style type="text/css">
	.st0{display:none;}
	.st1{display:inline;fill:#FFD370;}
	.st2{fill:#FFFFFF;}
	.st3{fill:none;stroke:#FEFFFB;stroke-width:0.8845;stroke-miterlimit:10;}
	.st4{fill:none;stroke:#FEFFFB;stroke-width:1.769;stroke-miterlimit:10;}
	.st5{fill:none;stroke:#FEFFFB;stroke-width:0.7028;stroke-miterlimit:10;}
	.st6{fill:none;stroke:#FEFFFB;stroke-width:1.7486;stroke-miterlimit:10;}
	.st7{fill:#FFF3D7;}
	.st8{fill:#E85300;}
	.st9{fill:#C64200;}
	.st10{fill:#FF6700;}
	.st11{fill:#AA3400;}
	.st12{fill:#FBA389;}
	.st13{opacity:0.19;fill:#754C16;}
	.st14{fill:#CE5300;}
	.st15{fill:#4600CE;}
	.st16{fill:#FFB000;}
	.st17{fill:#FFA300;}
	.st18{fill:#ED9E00;}
	.st19{fill:#6503FF;}
	.st20{fill:#D89E93;}
	.st21{fill:#FFD4CA;}
	.st22{fill:#FF4E00;}
	.st23{fill:#935000;}
	.st24{opacity:0.29;fill:#935000;}
	.st25{fill:#FDA18A;}
	.st26{fill:#F49681;}
	.st27{fill:#7D39FF;}
	.st28{fill:#F18A78;}
	.st29{fill:#FEFEF4;}
	.st30{fill:none;stroke:#C94E28;stroke-width:1.0647;stroke-linecap:round;stroke-linejoin:round;stroke-miterlimit:10;}
	.st31{fill:none;stroke:#FFFFFF;stroke-width:1.6166;stroke-linecap:round;stroke-linejoin:round;stroke-miterlimit:10;}
	.st32{fill:none;stroke:#C94E28;stroke-width:0.9346;stroke-linecap:round;stroke-linejoin:round;stroke-miterlimit:10;}
	.st33{fill:none;stroke:#FEFFFB;stroke-width:1.0368;stroke-miterlimit:10;}
	.st34{fill:none;stroke:#CCCCCC;stroke-linecap:round;stroke-linejoin:round;stroke-miterlimit:10;}
</style>
<g id="BACKGROUND" class="st0">
	<rect x="126.09" y="-76.37" class="st1" width="750" height="500"/>
</g>
<g id="OBJECT">
	<g>
		<g>
			<path class="st2" d="M579.33,241.09c-1.65-0.89-2.95-2.13-3.89-3.72s-1.41-3.36-1.41-5.32s0.47-3.73,1.41-5.32
				c0.94-1.59,2.24-2.83,3.89-3.72c1.65-0.89,3.51-1.34,5.57-1.34c2.06,0,3.91,0.45,5.57,1.34c1.65,0.89,2.95,2.13,3.89,3.71
				c0.94,1.58,1.41,3.35,1.41,5.33s-0.47,3.76-1.41,5.33c-0.94,1.58-2.24,2.81-3.89,3.71c-1.65,0.89-3.51,1.34-5.57,1.34
				C582.83,242.43,580.98,241.99,579.33,241.09z M588.53,238.24c1.08-0.61,1.92-1.45,2.54-2.54c0.62-1.09,0.92-2.3,0.92-3.65
				s-0.31-2.56-0.92-3.65c-0.62-1.09-1.46-1.93-2.54-2.54c-1.08-0.61-2.29-0.91-3.63-0.91s-2.56,0.3-3.63,0.91
				c-1.08,0.61-1.92,1.45-2.54,2.54c-0.62,1.09-0.92,2.3-0.92,3.65s0.31,2.56,0.92,3.65c0.61,1.09,1.46,1.93,2.54,2.54
				c1.08,0.61,2.29,0.91,3.63,0.91S587.45,238.84,588.53,238.24z"/>
			<path class="st2" d="M600.66,241.34c-1.25-0.67-2.23-1.61-2.93-2.81c-0.7-1.2-1.05-2.56-1.05-4.08s0.35-2.87,1.05-4.07
				c0.7-1.19,1.68-2.12,2.93-2.8s2.65-1.01,4.21-1.01c1.58,0,2.99,0.34,4.24,1.01s2.23,1.61,2.93,2.8c0.7,1.19,1.05,2.55,1.05,4.07
				s-0.35,2.88-1.05,4.08c-0.7,1.2-1.68,2.14-2.93,2.81c-1.25,0.67-2.66,1.01-4.24,1.01C603.32,242.35,601.91,242.01,600.66,241.34z
				 M608.16,237.93c0.87-0.88,1.3-2.05,1.3-3.49c0-1.44-0.43-2.61-1.3-3.49c-0.87-0.88-1.96-1.33-3.29-1.33
				c-1.33,0-2.42,0.44-3.27,1.33c-0.86,0.88-1.28,2.05-1.28,3.49c0,1.44,0.43,2.6,1.28,3.49c0.86,0.88,1.95,1.33,3.27,1.33
				C606.2,239.26,607.3,238.82,608.16,237.93z"/>
			<path class="st2" d="M627.67,227.55c1.18,0.65,2.11,1.58,2.78,2.77c0.67,1.19,1.01,2.57,1.01,4.12c0,1.56-0.34,2.94-1.01,4.14
				c-0.67,1.2-1.6,2.13-2.78,2.78c-1.18,0.65-2.52,0.98-4.02,0.98c-2.08,0-3.72-0.69-4.93-2.08v7.47h-3.61v-20.99h3.43v2.02
				c0.6-0.73,1.33-1.28,2.21-1.64s1.84-0.55,2.9-0.55C625.15,226.57,626.49,226.9,627.67,227.55z M626.52,237.93
				c0.86-0.88,1.28-2.05,1.28-3.49c0-1.44-0.43-2.61-1.28-3.49c-0.86-0.88-1.95-1.33-3.27-1.33c-0.87,0-1.64,0.2-2.34,0.59
				c-0.69,0.39-1.24,0.96-1.64,1.69c-0.4,0.73-0.61,1.58-0.61,2.54c0,0.96,0.2,1.81,0.61,2.54c0.4,0.73,0.95,1.29,1.64,1.69
				c0.69,0.39,1.47,0.59,2.34,0.59C624.57,239.26,625.66,238.82,626.52,237.93z"/>
			<path class="st2" d="M634.55,241.86c-1.19-0.33-2.14-0.74-2.86-1.24l1.38-2.74c0.69,0.46,1.52,0.83,2.49,1.11
				c0.97,0.28,1.93,0.42,2.87,0.42c2.15,0,3.23-0.57,3.23-1.7c0-0.54-0.27-0.91-0.82-1.12s-1.43-0.41-2.64-0.61
				c-1.27-0.19-2.3-0.41-3.1-0.66s-1.49-0.69-2.08-1.31s-0.88-1.5-0.88-2.61c0-1.46,0.61-2.63,1.83-3.5
				c1.22-0.88,2.87-1.31,4.95-1.31c1.06,0,2.11,0.12,3.17,0.36c1.06,0.24,1.92,0.56,2.6,0.97l-1.38,2.74
				c-1.31-0.77-2.78-1.15-4.41-1.15c-1.06,0-1.86,0.16-2.41,0.48s-0.82,0.74-0.82,1.25c0,0.58,0.29,0.99,0.88,1.23
				c0.59,0.24,1.49,0.47,2.72,0.68c1.23,0.19,2.24,0.41,3.03,0.66c0.79,0.25,1.47,0.67,2.03,1.27c0.57,0.6,0.85,1.44,0.85,2.54
				c0,1.44-0.63,2.6-1.88,3.46c-1.25,0.87-2.95,1.3-5.1,1.3C636.96,242.35,635.74,242.18,634.55,241.86z"/>
			<path class="st2" d="M649.72,238.22c0.44,0.44,0.66,1.02,0.66,1.73c0,0.31-0.04,0.63-0.13,0.97c-0.09,0.34-0.26,0.84-0.53,1.51
				l-1.47,4.07h-2.34l1.15-4.41c-0.42-0.17-0.75-0.45-1-0.82s-0.36-0.81-0.36-1.31c0-0.71,0.22-1.29,0.66-1.73s1-0.66,1.67-0.66
				S649.27,237.78,649.72,238.22z"/>
			<path class="st2" d="M673.39,235.6h-12.08c0.21,1.13,0.76,2.03,1.66,2.7c0.89,0.66,2,1,3.33,1c1.69,0,3.09-0.56,4.18-1.67
				l1.93,2.22c-0.69,0.83-1.57,1.45-2.62,1.87c-1.06,0.42-2.25,0.63-3.58,0.63c-1.69,0-3.18-0.34-4.47-1.01
				c-1.29-0.67-2.28-1.61-2.98-2.81c-0.7-1.2-1.05-2.56-1.05-4.08c0-1.5,0.34-2.85,1.02-4.05s1.63-2.14,2.84-2.81
				s2.58-1.01,4.09-1.01c1.5,0,2.84,0.33,4.02,1c1.18,0.66,2.1,1.6,2.77,2.8c0.66,1.2,1,2.59,1,4.17
				C673.45,234.78,673.43,235.14,673.39,235.6z M662.74,230.48c-0.8,0.68-1.28,1.59-1.46,2.73h8.74c-0.15-1.12-0.63-2.02-1.41-2.71
				s-1.77-1.04-2.94-1.04C664.51,229.46,663.53,229.8,662.74,230.48z"/>
			<path class="st2" d="M684.38,226.57V230c-0.31-0.06-0.59-0.09-0.84-0.09c-1.4,0-2.5,0.41-3.29,1.23s-1.18,1.99-1.18,3.53v7.47
				h-3.61v-15.4h3.43v2.25C679.94,227.38,681.76,226.57,684.38,226.57z"/>
			<path class="st2" d="M694.9,226.57V230c-0.31-0.06-0.59-0.09-0.84-0.09c-1.4,0-2.5,0.41-3.29,1.23s-1.18,1.99-1.18,3.53v7.47
				h-3.61v-15.4h3.43v2.25C690.46,227.38,692.29,226.57,694.9,226.57z"/>
			<path class="st2" d="M699.09,241.34c-1.25-0.67-2.23-1.61-2.93-2.81c-0.7-1.2-1.05-2.56-1.05-4.08s0.35-2.87,1.05-4.07
				c0.7-1.19,1.68-2.12,2.93-2.8s2.65-1.01,4.21-1.01c1.58,0,2.99,0.34,4.24,1.01s2.23,1.61,2.93,2.8c0.7,1.19,1.05,2.55,1.05,4.07
				s-0.35,2.88-1.05,4.08c-0.7,1.2-1.68,2.14-2.93,2.81c-1.25,0.67-2.66,1.01-4.24,1.01C701.74,242.35,700.34,242.01,699.09,241.34z
				 M706.58,237.93c0.87-0.88,1.3-2.05,1.3-3.49c0-1.44-0.43-2.61-1.3-3.49c-0.87-0.88-1.96-1.33-3.29-1.33
				c-1.33,0-2.42,0.44-3.27,1.33c-0.86,0.88-1.28,2.05-1.28,3.49c0,1.44,0.43,2.6,1.28,3.49c0.86,0.88,1.95,1.33,3.27,1.33
				C704.62,239.26,705.72,238.82,706.58,237.93z"/>
			<path class="st2" d="M722.44,226.57V230c-0.31-0.06-0.59-0.09-0.84-0.09c-1.4,0-2.5,0.41-3.29,1.23s-1.18,1.99-1.18,3.53v7.47
				h-3.61v-15.4h3.43v2.25C718,227.38,719.83,226.57,722.44,226.57z"/>
			<path class="st2" d="M747.62,237.56h-3.58v4.58h-3.63v-4.58h-11.07v-2.6l9.95-13.01h4.01l-9.37,12.43h6.6v-4.07h3.52v4.07h3.58
				V237.56z"/>
			<path class="st2" d="M751.86,241.21c-1.27-0.82-2.27-2.01-3-3.58c-0.73-1.57-1.1-3.43-1.1-5.58s0.37-4.01,1.1-5.58
				s1.73-2.76,3-3.58c1.27-0.82,2.71-1.23,4.33-1.23s3.06,0.41,4.34,1.23c1.28,0.82,2.28,2.01,3.01,3.58
				c0.73,1.57,1.1,3.43,1.1,5.58s-0.37,4.01-1.1,5.58c-0.73,1.57-1.74,2.76-3.01,3.58c-1.28,0.82-2.72,1.23-4.34,1.23
				S753.13,242.02,751.86,241.21z M759.6,237.39c0.84-1.19,1.25-2.97,1.25-5.33c0-2.37-0.42-4.14-1.25-5.33s-1.98-1.79-3.42-1.79
				c-1.42,0-2.55,0.6-3.39,1.79c-0.84,1.19-1.25,2.97-1.25,5.33c0,2.36,0.42,4.14,1.25,5.33c0.84,1.19,1.97,1.79,3.39,1.79
				C757.62,239.17,758.76,238.58,759.6,237.39z"/>
			<path class="st2" d="M783.72,237.56h-3.58v4.58h-3.63v-4.58h-11.07v-2.6l9.95-13.01h4.01l-9.37,12.43h6.6v-4.07h3.52v4.07h3.58
				V237.56z"/>
		</g>
		<g>
			<path class="st2" d="M583.12,253.31c0.82,0.45,1.47,1.1,1.93,1.92s0.7,1.78,0.7,2.87c0,1.08-0.23,2.04-0.7,2.88
				c-0.47,0.84-1.11,1.48-1.93,1.93c-0.82,0.45-1.75,0.68-2.79,0.68c-1.44,0-2.59-0.48-3.43-1.44v5.19h-2.5v-14.59h2.38v1.4
				c0.41-0.51,0.92-0.89,1.53-1.14c0.61-0.25,1.28-0.38,2.01-0.38C581.37,252.63,582.3,252.86,583.12,253.31z M582.32,260.53
				c0.59-0.61,0.89-1.42,0.89-2.43c0-1-0.3-1.81-0.89-2.42c-0.59-0.61-1.35-0.92-2.28-0.92c-0.6,0-1.14,0.14-1.62,0.41
				c-0.48,0.27-0.86,0.67-1.14,1.17s-0.42,1.1-0.42,1.76c0,0.67,0.14,1.26,0.42,1.76c0.28,0.51,0.66,0.9,1.14,1.17
				c0.48,0.27,1.02,0.41,1.62,0.41C580.97,261.45,581.73,261.14,582.32,260.53z"/>
			<path class="st2" d="M594.71,253.76c0.83,0.75,1.25,1.89,1.25,3.42v6.27h-2.36v-1.3c-0.31,0.47-0.75,0.83-1.31,1.07
				c-0.57,0.25-1.25,0.37-2.05,0.37s-1.5-0.14-2.1-0.41s-1.07-0.65-1.39-1.14c-0.33-0.49-0.49-1.04-0.49-1.65
				c0-0.96,0.36-1.73,1.07-2.31s1.84-0.87,3.38-0.87h2.77v-0.16c0-0.75-0.22-1.32-0.67-1.72c-0.45-0.4-1.11-0.6-1.99-0.6
				c-0.6,0-1.19,0.09-1.77,0.28c-0.58,0.19-1.07,0.45-1.47,0.78l-0.98-1.82c0.56-0.43,1.24-0.75,2.02-0.98s1.62-0.34,2.5-0.34
				C592.67,252.63,593.87,253.01,594.71,253.76z M592.42,261.34c0.49-0.29,0.83-0.7,1.03-1.23v-1.24h-2.58
				c-1.44,0-2.17,0.47-2.17,1.42c0,0.46,0.18,0.82,0.54,1.08c0.36,0.27,0.86,0.4,1.5,0.4C591.38,261.77,591.93,261.62,592.42,261.34
				z"/>
			<path class="st2" d="M608.89,252.75v9.08c0,3.77-1.92,5.65-5.77,5.65c-1.03,0-2-0.13-2.93-0.39s-1.68-0.64-2.29-1.13l1.12-1.88
				c0.47,0.39,1.06,0.7,1.77,0.93c0.71,0.23,1.44,0.35,2.17,0.35c1.17,0,2.04-0.27,2.58-0.8c0.55-0.54,0.82-1.35,0.82-2.45v-0.56
				c-0.43,0.47-0.95,0.82-1.56,1.06c-0.62,0.24-1.29,0.36-2.02,0.36c-1.02,0-1.93-0.22-2.76-0.65c-0.82-0.43-1.47-1.04-1.94-1.83
				c-0.47-0.79-0.71-1.69-0.71-2.71c0-1.01,0.24-1.91,0.71-2.7c0.47-0.78,1.12-1.39,1.94-1.81c0.82-0.43,1.74-0.64,2.76-0.64
				c0.77,0,1.48,0.13,2.11,0.38s1.17,0.64,1.59,1.16v-1.42H608.89z M605.51,259.99c0.61-0.57,0.91-1.31,0.91-2.21
				c0-0.89-0.3-1.62-0.91-2.18c-0.61-0.56-1.39-0.84-2.33-0.84c-0.96,0-1.75,0.28-2.36,0.84c-0.61,0.56-0.91,1.29-0.91,2.18
				c0,0.91,0.3,1.65,0.91,2.21c0.61,0.57,1.39,0.85,2.36,0.85C604.12,260.85,604.9,260.56,605.51,259.99z"/>
			<path class="st2" d="M621.19,258.9h-8.4c0.15,0.79,0.53,1.41,1.15,1.87s1.39,0.69,2.32,0.69c1.17,0,2.14-0.39,2.91-1.16
				l1.34,1.54c-0.48,0.58-1.09,1.01-1.82,1.3c-0.74,0.29-1.56,0.44-2.49,0.44c-1.18,0-2.21-0.23-3.11-0.7
				c-0.9-0.47-1.59-1.12-2.07-1.95c-0.49-0.83-0.73-1.78-0.73-2.84c0-1.04,0.24-1.98,0.71-2.82c0.47-0.83,1.13-1.49,1.97-1.95
				s1.79-0.7,2.85-0.7c1.04,0,1.97,0.23,2.8,0.69s1.46,1.11,1.92,1.94s0.69,1.8,0.69,2.9C621.23,258.33,621.22,258.58,621.19,258.9z
				 M613.78,255.34c-0.55,0.47-0.89,1.11-1.01,1.89h6.07c-0.11-0.77-0.43-1.4-0.98-1.88c-0.55-0.48-1.23-0.72-2.04-0.72
				C615.02,254.63,614.34,254.87,613.78,255.34z"/>
			<path class="st2" d="M636.48,253.81c0.81,0.79,1.22,1.96,1.22,3.51v6.13h-2.51v-5.81c0-0.93-0.22-1.64-0.66-2.11
				c-0.44-0.47-1.07-0.71-1.88-0.71c-0.92,0-1.65,0.28-2.18,0.83c-0.53,0.55-0.8,1.35-0.8,2.4v5.41h-2.5v-10.7h2.38v1.38
				c0.41-0.49,0.94-0.87,1.56-1.12s1.34-0.38,2.12-0.38C634.58,252.63,635.67,253.02,636.48,253.81z"/>
			<path class="st2" d="M641.87,262.89c-0.87-0.47-1.55-1.12-2.03-1.95c-0.49-0.83-0.73-1.78-0.73-2.84c0-1.05,0.24-2,0.73-2.83
				c0.49-0.83,1.17-1.48,2.03-1.94c0.87-0.47,1.84-0.7,2.93-0.7c1.1,0,2.08,0.23,2.95,0.7s1.55,1.12,2.03,1.94s0.73,1.77,0.73,2.83
				c0,1.06-0.24,2-0.73,2.84c-0.49,0.84-1.17,1.49-2.03,1.95c-0.87,0.47-1.85,0.7-2.95,0.7
				C643.72,263.59,642.74,263.36,641.87,262.89z M647.08,260.53c0.6-0.61,0.9-1.42,0.9-2.43c0-1-0.3-1.81-0.9-2.42
				c-0.6-0.61-1.36-0.92-2.29-0.92s-1.68,0.31-2.27,0.92c-0.59,0.62-0.89,1.42-0.89,2.42c0,1,0.3,1.81,0.89,2.43
				s1.35,0.92,2.27,0.92S646.48,261.14,647.08,260.53z"/>
			<path class="st2" d="M658.35,262.87c-0.29,0.24-0.65,0.42-1.07,0.54s-0.87,0.18-1.33,0.18c-1.18,0-2.08-0.31-2.73-0.92
				c-0.64-0.62-0.96-1.51-0.96-2.69v-5.15h-1.76v-2h1.76v-2.45h2.5v2.45h2.87v2h-2.87v5.09c0,0.52,0.13,0.92,0.38,1.19
				c0.25,0.27,0.62,0.41,1.1,0.41c0.56,0,1.03-0.15,1.4-0.44L658.35,262.87z"/>
			<path class="st2" d="M666.7,252.19v0.64h2.95v2h-2.87v8.62h-2.5v-8.62h-1.76v-2h1.76v-0.68c0-1.15,0.33-2.05,1-2.72
				c0.67-0.66,1.61-0.99,2.83-0.99c0.96,0,1.72,0.19,2.26,0.58l-0.7,1.88c-0.43-0.29-0.89-0.44-1.38-0.44
				C667.23,250.46,666.7,251.04,666.7,252.19z"/>
			<path class="st2" d="M672.05,262.89c-0.87-0.47-1.55-1.12-2.03-1.95c-0.49-0.83-0.73-1.78-0.73-2.84c0-1.05,0.24-2,0.73-2.83
				c0.49-0.83,1.17-1.48,2.03-1.94c0.87-0.47,1.84-0.7,2.93-0.7c1.1,0,2.08,0.23,2.95,0.7s1.55,1.12,2.03,1.94s0.73,1.77,0.73,2.83
				c0,1.06-0.24,2-0.73,2.84c-0.49,0.84-1.17,1.49-2.03,1.95c-0.87,0.47-1.85,0.7-2.95,0.7
				C673.9,263.59,672.92,263.36,672.05,262.89z M677.27,260.53c0.6-0.61,0.9-1.42,0.9-2.43c0-1-0.3-1.81-0.9-2.42
				c-0.6-0.61-1.36-0.92-2.29-0.92s-1.68,0.31-2.27,0.92c-0.59,0.62-0.89,1.42-0.89,2.42c0,1,0.3,1.81,0.89,2.43
				s1.35,0.92,2.27,0.92S676.66,261.14,677.27,260.53z"/>
			<path class="st2" d="M692.46,252.75v10.7h-2.38v-1.36c-0.4,0.48-0.9,0.85-1.5,1.11c-0.6,0.26-1.25,0.39-1.94,0.39
				c-1.43,0-2.56-0.4-3.38-1.19c-0.82-0.79-1.23-1.97-1.23-3.54v-6.11h2.5v5.77c0,0.96,0.22,1.68,0.65,2.16
				c0.43,0.47,1.05,0.71,1.85,0.71c0.9,0,1.61-0.28,2.13-0.83c0.53-0.55,0.79-1.35,0.79-2.39v-5.41H692.46z"/>
			<path class="st2" d="M704.06,253.81c0.81,0.79,1.22,1.96,1.22,3.51v6.13h-2.51v-5.81c0-0.93-0.22-1.64-0.66-2.11
				c-0.44-0.47-1.07-0.71-1.88-0.71c-0.92,0-1.65,0.28-2.18,0.83c-0.53,0.55-0.8,1.35-0.8,2.4v5.41h-2.5v-10.7h2.38v1.38
				c0.41-0.49,0.94-0.87,1.56-1.12s1.34-0.38,2.12-0.38C702.16,252.63,703.24,253.02,704.06,253.81z"/>
			<path class="st2" d="M718.05,248.58v14.87h-2.41v-1.38c-0.41,0.51-0.92,0.89-1.53,1.14c-0.61,0.25-1.28,0.38-2.01,0.38
				c-1.03,0-1.95-0.23-2.78-0.68c-0.82-0.45-1.47-1.1-1.93-1.93c-0.47-0.83-0.7-1.79-0.7-2.88c0-1.08,0.23-2.04,0.7-2.87
				s1.11-1.47,1.93-1.92c0.82-0.45,1.75-0.68,2.78-0.68c0.71,0,1.36,0.12,1.94,0.36c0.59,0.24,1.09,0.6,1.5,1.08v-5.49H718.05z
				 M714.02,261.04c0.48-0.27,0.86-0.66,1.14-1.17c0.28-0.51,0.42-1.09,0.42-1.76c0-0.67-0.14-1.25-0.42-1.76s-0.66-0.9-1.14-1.17
				c-0.48-0.27-1.02-0.41-1.62-0.41c-0.6,0-1.14,0.14-1.62,0.41c-0.48,0.27-0.86,0.67-1.14,1.17c-0.28,0.51-0.42,1.1-0.42,1.76
				c0,0.67,0.14,1.26,0.42,1.76c0.28,0.51,0.66,0.9,1.14,1.17c0.48,0.27,1.02,0.41,1.62,0.41
				C713,261.45,713.54,261.31,714.02,261.04z"/>
			<path class="st2" d="M720.33,263.14c-0.31-0.3-0.46-0.67-0.46-1.11c0-0.44,0.15-0.81,0.46-1.1c0.31-0.29,0.69-0.44,1.16-0.44
				c0.45,0,0.83,0.15,1.13,0.44s0.45,0.66,0.45,1.1c0,0.44-0.15,0.81-0.45,1.11s-0.68,0.45-1.13,0.45
				C721.03,263.59,720.64,263.44,720.33,263.14z M720.01,249.42h2.97l-0.5,9.38h-1.98L720.01,249.42z"/>
		</g>
	</g>
	<g>
		<path class="st3" d="M594.39,67.19c0,0-3.62-10.57,1.39-11.96c5.01-1.39,8.9,0,8.9,0s-0.83-5.84,2.78-6.95
			c3.62-1.11,8.62,2.23,17.24,14.46c0,0,2.78-7.43,7.79-5.11c5.01,2.33,12.52,11.5,12.52,11.5L594.39,67.19z"/>
		<path class="st3" d="M769.99,55.59c0,0-5.75-16.81,2.21-19.02c7.96-2.21,14.15,0,14.15,0s-1.33-9.29,4.42-11.06
			c5.75-1.77,13.71,3.54,27.42,23c0,0,4.42-11.82,12.38-8.12c7.96,3.7,19.9,18.29,19.9,18.29L769.99,55.59z"/>
		<path class="st3" d="M282.69,84.92c0,0-5.11-14.93,1.96-16.89c7.07-1.96,12.57,0,12.57,0s-1.18-8.25,3.93-9.82
			c5.11-1.57,12.18,3.14,24.36,20.43c0,0,3.93-10.5,11-7.21c7.07,3.28,17.68,16.25,17.68,16.25L282.69,84.92z"/>
		<g>
			<polyline class="st4" points="128.09,307.63 233.09,307.63 233.09,254.1 253.43,254.1 253.43,162.3 293.76,182.3 293.76,254.1 
				314.52,254.1 314.52,172.19 350.97,172.19 350.97,119.94 397.18,119.94 397.18,253.58 411.22,253.58 411.22,130.06 
				436.35,150.08 436.35,195.89 447.63,195.89 447.63,110.63 474.09,110.63 474.09,203.18 497.22,203.18 497.22,135.95 
				517.4,116.25 517.4,161.54 543.95,161.54 543.95,137.58 594.97,137.58 594.97,175.09 723.86,175.09 723.86,88.12 768.25,88.12 
				768.25,194.62 779.17,194.62 779.17,153.16 793.32,153.16 793.32,124.73 798.6,119.45 798.6,153.16 815.43,153.16 815.43,194.35 
				825.56,194.35 825.56,165.95 854.35,165.95 854.35,252.04 875.59,252.04 			"/>
			<rect x="356.52" y="124.73" class="st3" width="9.09" height="9.09"/>
			<rect x="369.3" y="124.73" class="st3" width="9.09" height="9.09"/>
			<rect x="382.07" y="124.73" class="st3" width="9.09" height="9.09"/>
			<rect x="356.52" y="137.65" class="st3" width="9.09" height="9.09"/>
			<rect x="369.3" y="137.65" class="st3" width="9.09" height="9.09"/>
			<rect x="382.07" y="137.65" class="st3" width="9.09" height="9.09"/>
			<rect x="356.52" y="149.32" class="st3" width="9.09" height="9.09"/>
			<rect x="369.3" y="149.32" class="st3" width="9.09" height="9.09"/>
			<rect x="382.07" y="149.32" class="st3" width="9.09" height="9.09"/>
			<rect x="728.1" y="106.5" class="st3" width="9.09" height="9.09"/>
			<rect x="740.88" y="106.5" class="st3" width="9.09" height="9.09"/>
			<rect x="753.65" y="106.5" class="st3" width="9.09" height="9.09"/>
			<rect x="728.1" y="118.18" class="st3" width="9.09" height="9.09"/>
			<rect x="740.88" y="118.18" class="st3" width="9.09" height="9.09"/>
			<rect x="753.65" y="118.18" class="st3" width="9.09" height="9.09"/>
			<rect x="782.54" y="158.71" class="st5" width="7.22" height="7.22"/>
			<rect x="792.69" y="158.71" class="st5" width="7.22" height="7.22"/>
			<rect x="802.84" y="158.71" class="st5" width="7.22" height="7.22"/>
			<rect x="782.54" y="168.98" class="st5" width="7.22" height="7.22"/>
			<rect x="792.69" y="168.98" class="st5" width="7.22" height="7.22"/>
			<rect x="802.84" y="168.98" class="st5" width="7.22" height="7.22"/>
			<rect x="782.54" y="178.25" class="st5" width="7.22" height="7.22"/>
			<rect x="792.69" y="178.25" class="st5" width="7.22" height="7.22"/>
			<rect x="802.84" y="178.25" class="st5" width="7.22" height="7.22"/>
		</g>
		<rect x="728.1" y="93.59" class="st3" width="9.09" height="9.09"/>
		<rect x="740.88" y="93.59" class="st3" width="9.09" height="9.09"/>
		<rect x="753.65" y="93.59" class="st3" width="9.09" height="9.09"/>
		<rect x="604.76" y="112.3" class="st4" width="108.33" height="48.33"/>
		<rect x="616.18" y="160.63" class="st6" width="7" height="14.33"/>
		<rect x="696.05" y="160.63" class="st6" width="7" height="14.33"/>
		<g>
			<ellipse class="st4" cx="192.59" cy="180.8" rx="37.5" ry="75"/>
			<line class="st4" x1="193.09" y1="306.63" x2="193.09" y2="137.63"/>
			<line class="st4" x1="192.76" y1="165.63" x2="173.76" y2="144.3"/>
			<line class="st4" x1="192.76" y1="191.63" x2="217.09" y2="167.3"/>
			<line class="st4" x1="193.26" y1="218.55" x2="170.76" y2="193.3"/>
		</g>
	</g>
	<g>
		<ellipse class="st7" cx="464.24" cy="353.72" rx="101.1" ry="8.22"/>
		<g>
			<g>
				<polygon class="st2" points="502.08,336.43 486.55,338.49 478.78,308.26 494.43,306.13 				"/>
				<path class="st8" d="M504.48,351.55c-2.12,0.06-4.72,0.06-7.56,0.06c-19.3,0.18-51.35-0.12-51.35-0.12s-2.48-10.71,11.07-9.8
					c5.08,0.3,10.16-1.09,14.64-3.51c7.5-4.17,11.61-8.41,12.46-8.95c1.09-0.79,2.96,7.98,17.42,3.93c0.42-0.06,0.85,0.12,0.97,0.48
					c1.03,2.36,1.75,3.99,2.18,5.75C505.02,342.06,505.08,345.14,504.48,351.55z"/>
				<path class="st9" d="M470.93,343.1l-2.72-3.89c-0.03-0.04-0.02-0.09,0.02-0.11l0.68-0.48c0.04-0.03,0.09-0.02,0.11,0.02
					l2.72,3.89c0.03,0.04,0.02,0.09-0.02,0.11l-0.68,0.48C471.01,343.15,470.95,343.14,470.93,343.1z"/>
				<path class="st9" d="M472.79,342.04l-2.72-3.89c-0.03-0.04-0.02-0.09,0.02-0.11l0.68-0.48c0.04-0.03,0.09-0.02,0.11,0.02
					l2.72,3.89c0.03,0.04,0.02,0.09-0.02,0.11l-0.68,0.48C472.87,342.09,472.82,342.08,472.79,342.04z"/>
				<path class="st9" d="M474.41,341.04l-2.72-3.89c-0.03-0.04-0.02-0.09,0.02-0.11l0.68-0.48c0.04-0.03,0.09-0.02,0.11,0.02
					l2.72,3.89c0.03,0.04,0.02,0.09-0.02,0.11l-0.68,0.48C474.49,341.09,474.44,341.08,474.41,341.04z"/>
				<path class="st9" d="M475.98,339.94l-2.72-3.89c-0.03-0.04-0.02-0.09,0.02-0.11l0.68-0.48c0.04-0.03,0.09-0.02,0.11,0.02
					l2.72,3.89c0.03,0.04,0.02,0.09-0.02,0.11l-0.68,0.48C476.06,339.99,476,339.98,475.98,339.94z"/>
				<path class="st9" d="M477.6,338.93l-2.72-3.89c-0.03-0.04-0.02-0.09,0.02-0.11l0.68-0.48c0.04-0.03,0.09-0.02,0.11,0.02
					l2.72,3.89c0.03,0.04,0.02,0.09-0.02,0.11l-0.68,0.48C477.68,338.97,477.63,338.97,477.6,338.93z"/>
				<path class="st9" d="M479.29,337.75l-2.72-3.89c-0.03-0.04-0.02-0.09,0.02-0.11l0.68-0.48c0.04-0.03,0.09-0.02,0.11,0.02
					l2.72,3.89c0.03,0.04,0.02,0.09-0.02,0.11l-0.68,0.48C479.37,337.79,479.32,337.78,479.29,337.75z"/>
				<path class="st9" d="M480.73,336.73l-2.72-3.89c-0.03-0.04-0.02-0.09,0.02-0.11l0.68-0.48c0.04-0.03,0.09-0.02,0.11,0.02
					l2.72,3.89c0.03,0.04,0.02,0.09-0.02,0.11l-0.68,0.48C480.81,336.78,480.76,336.77,480.73,336.73z"/>
				<path class="st9" d="M504.53,353.36h-58.95c-0.44,0-0.8-0.36-0.8-0.8v-0.28c0-0.44,0.36-0.8,0.8-0.8h58.95
					c0.44,0,0.8,0.36,0.8,0.8v0.28C505.34,353,504.98,353.36,504.53,353.36z"/>
			</g>
			<path class="st9" d="M504.48,351.55c-2.12,0.06-4.72,0.06-7.56,0.06c-0.42,0,0.41-3.66,0.53-4.06c0.59-1.89,1.59-3.66,2.93-5.13
				c0.36-0.39,3.9-3.06,3.91-3.04C505.02,342.06,505.08,345.14,504.48,351.55z"/>
		</g>
		<g>
			<polygon class="st2" points="538.42,337.29 523.06,340.31 513.42,310.61 529.59,307.3 			"/>
			<path class="st10" d="M541.76,352.23c-2.11,0.19-4.7,0.35-7.54,0.53c-19.25,1.38-51.26,3.06-51.26,3.06s-3.14-10.53,10.44-10.47
				c5.09-0.01,10.07-1.72,14.39-4.41c7.23-4.63,11.07-9.11,11.88-9.71c1.04-0.85,3.45,7.79,17.63,2.84c0.42-0.09,0.85,0.07,1,0.42
				c1.17,2.29,2,3.88,2.53,5.6C541.71,342.72,541.96,345.8,541.76,352.23z"/>
			<path class="st9" d="M507.75,345.88l-2.96-3.71c-0.03-0.04-0.02-0.09,0.01-0.12l0.65-0.52c0.04-0.03,0.09-0.02,0.12,0.01
				l2.96,3.71c0.03,0.04,0.02,0.09-0.01,0.12l-0.65,0.52C507.83,345.92,507.78,345.91,507.75,345.88z"/>
			<path class="st9" d="M509.54,344.71l-2.96-3.71c-0.03-0.04-0.02-0.09,0.01-0.12l0.65-0.52c0.04-0.03,0.09-0.02,0.12,0.01
				l2.96,3.71c0.03,0.04,0.02,0.09-0.01,0.12l-0.65,0.52C509.62,344.75,509.57,344.74,509.54,344.71z"/>
			<path class="st9" d="M511.1,343.6l-2.96-3.71c-0.03-0.04-0.02-0.09,0.01-0.12l0.65-0.52c0.04-0.03,0.09-0.02,0.12,0.01l2.96,3.71
				c0.03,0.04,0.02,0.09-0.01,0.12l-0.65,0.52C511.18,343.65,511.13,343.64,511.1,343.6z"/>
			<path class="st9" d="M512.59,342.41l-2.96-3.71c-0.03-0.04-0.02-0.09,0.01-0.12l0.65-0.52c0.04-0.03,0.09-0.02,0.12,0.01
				l2.96,3.71c0.03,0.04,0.02,0.09-0.01,0.12l-0.65,0.52C512.68,342.45,512.62,342.45,512.59,342.41z"/>
			<path class="st9" d="M514.15,341.3l-2.96-3.71c-0.03-0.04-0.02-0.09,0.01-0.12l0.65-0.52c0.04-0.03,0.09-0.02,0.12,0.01
				l2.96,3.71c0.03,0.04,0.02,0.09-0.01,0.12l-0.65,0.52C514.23,341.34,514.18,341.33,514.15,341.3z"/>
			<path class="st9" d="M515.76,340.01l-2.96-3.71c-0.03-0.04-0.02-0.09,0.01-0.12l0.65-0.52c0.04-0.03,0.09-0.02,0.12,0.01
				l2.96,3.71c0.03,0.04,0.02,0.09-0.01,0.12l-0.65,0.52C515.84,340.06,515.79,340.05,515.76,340.01z"/>
			<path class="st9" d="M517.14,338.91l-2.96-3.71c-0.03-0.04-0.02-0.09,0.01-0.12l0.65-0.52c0.04-0.03,0.09-0.02,0.12,0.01
				l2.96,3.71c0.03,0.04,0.02,0.09-0.01,0.12l-0.65,0.52C517.22,338.96,517.17,338.95,517.14,338.91z"/>
			<path class="st11" d="M541.76,352.23c-2.11,0.19-4.7,0.35-7.54,0.53c-0.42,0.02,0.18-3.68,0.28-4.08
				c0.47-1.93,1.36-3.75,2.61-5.3c0.33-0.41,3.71-3.3,3.71-3.27C541.71,342.72,541.96,345.8,541.76,352.23z"/>
			<path class="st9" d="M541.93,354.03l-58.84,3.66c-0.44,0.03-0.83-0.31-0.85-0.75l-0.02-0.28c-0.03-0.44,0.31-0.83,0.75-0.85
				l58.84-3.66c0.44-0.03,0.83,0.31,0.85,0.75l0.02,0.28C542.71,353.62,542.37,354.01,541.93,354.03z"/>
		</g>
		<g>
			<path class="st12" d="M421.98,191.97c-0.6,0.29-1.22,0.54-1.87,0.77c-6.24,2.18-12.62,0.15-14.26-4.53
				c-1.62-4.67,2.12-10.22,8.36-12.4c2.31-0.8,4.62-1.04,6.71-0.77c3.59,0.44,6.53,2.34,7.56,5.3
				C429.94,184.53,427.08,189.42,421.98,191.97z"/>
			<g>
				<polygon class="st12" points="441.91,184.28 419.53,190.85 414.94,177.66 439.17,172.64 				"/>
				<path class="st13" d="M421.98,191.97c-0.6,0.29-1.22,0.54-1.87,0.77c-6.24,2.18-12.62,0.15-14.26-4.53
					c-1.62-4.67,2.12-10.22,8.36-12.4c2.31-0.8,4.62-1.04,6.71-0.77L421.98,191.97z"/>
			</g>
		</g>
		<g>
			<path class="st14" d="M512.32,112.67c-0.48,2.09-1.2,5.31-2.22,9.23c-3.74,14.41-11.52,38.25-26.2,50.11
				c-3.23,2.6-6.08,4.93-9,6.96c-8.53,5.94-17.79,9.49-39.38,10.76c-1.53,0.09-2.6-0.92-3.83-3c-0.81-1.39-1.45-2.87-1.95-4.4
				l-3.17-9.58c-0.32-2.01,0.72-4.04,2.9-4.16c11.73-0.62,23.88-7.79,38.17-20.23c12.03-10.45,22.04-31.98,23.86-39.55
				c0.14-0.56,0.36-1.53,0.69-2.66c0.47-1.65,1.14-3.63,2-5.13c0.8-1.38,2.65-1.74,3.96-0.81l6.55,4.6l4.44,3.13
				C511.37,108.29,512.83,110.46,512.32,112.67z"/>
			<g>
				
					<rect x="421.4" y="178.44" transform="matrix(0.3529 0.9357 -0.9357 0.3529 446.1995 -285.0225)" class="st2" width="15.5" height="3.23"/>
				<path class="st15" d="M512.32,112.67c-0.48,2.09-1.2,5.31-2.22,9.23c-3.74,14.41-11.52,38.25-26.2,50.11
					c-3.23,2.6-6.08,4.93-9,6.96c-8.53,5.94-17.79,9.49-39.38,10.76c-1.53,0.09-2.6-0.92-3.83-3c-0.81-1.39-1.45-2.87-1.95-4.4
					l-3.17-9.58c-0.32-2.01,0.72-4.04,2.9-4.16c11.73-0.62,23.88-7.79,38.17-20.23c12.03-10.45,22.04-31.98,23.86-39.55
					c0.14-0.56,0.36-1.53,0.69-2.66c0.47-1.65,1.14-3.63,2-5.13c0.8-1.38,2.65-1.74,3.96-0.81l6.55,4.6l4.44,3.13
					C511.37,108.29,512.83,110.46,512.32,112.67z"/>
			</g>
		</g>
		<g>
			<path class="st16" d="M421.9,209.56c0.09,1.42-1.74,2.06-2.55,0.9l-9.99-14.35l0-0.01l-0.51-0.73l-0.01-0.01l-1.44-2.07
				l-1.67-2.41l0-0.01l-0.74-1.05l-2.55-3.66l-0.68-1l-1.54-2.2l-2.4-3.45l-0.79-1.17l-0.61-0.86l22.98-8l0.06,1.05l0.09,1.42
				l0.06,0.83l0,0.01l0.26,4.22L421.9,209.56z"/>
			<path class="st17" d="M420.12,170.31l-23.76,8.28c-0.85,0.3-1.77-0.15-2.07-1l-0.19-0.54c-0.3-0.85,0.15-1.77,1-2.07l23.76-8.28
				c0.85-0.3,1.77,0.15,2.07,1l0.19,0.54C421.42,169.09,420.97,170.01,420.12,170.31z"/>
			<polygon class="st18" points="419.46,170.54 419.54,171.96 397.83,179.52 397.03,178.36 			"/>
			<path class="st19" d="M393.1,180.08c-0.49,0.39-1.24,0.27-1.72-0.12c-0.48-0.4-0.73-1-0.88-1.6c-0.27-1.07-0.26-2.26,0.32-3.19
				c0.78-1.27,2.46-1.78,3.91-1.48c0.53,0.11,1.07,0.31,1.6,0.19c0.83-0.19,1.3-1.07,2.05-1.46c0.95-0.49,2.28,0.06,2.61,1.07
				c0.08,0.25,0.11,0.53,0,0.77c-0.46,1.03-2.12,0.29-2.92,0.34c-0.74,0.04-1.8,0.23-2.48,0.55c-0.81,0.38-1.57,1.2-1.84,2.06
				C393.48,178.09,393.94,179.41,393.1,180.08z"/>
		</g>
		<g>
			<path class="st20" d="M419.86,177.02l-1.24,0.51c-0.73,0.3-1.56-0.05-1.86-0.77l-0.45-1.08c-0.3-0.73,0.05-1.56,0.77-1.86
				l2.52-1.03L419.86,177.02z"/>
			<g>
				<path class="st20" d="M409.74,182.23l-7.27,2.87c-0.24,0.1-0.48,0.12-0.71,0.07l-1.54-2.2c0-0.56,0.34-1.09,0.89-1.3l7.28-2.87
					c0.72-0.29,1.55,0.07,1.83,0.8l0.31,0.79C410.83,181.11,410.47,181.94,409.74,182.23z"/>
				<path class="st20" d="M410.95,187.75l-5.95,2.07l-2.55-3.66c0.15-0.11,0.3-0.2,0.48-0.26l6.59-2.3c0.87-0.3,1.84,0.17,2.15,1.05
					l0.32,0.94C412.3,186.48,411.84,187.45,410.95,187.75z"/>
				<path class="st20" d="M412.58,191.58l-4.69,1.62c-0.17,0.05-0.32,0.08-0.49,0.08l-1.67-2.41c0,0-0.01,0,0-0.01
					c0.07-0.5,0.42-0.96,0.93-1.13l4.69-1.64c0.74-0.26,1.55,0.13,1.81,0.87l0.28,0.8C413.71,190.51,413.31,191.32,412.58,191.58z"
					/>
				<path class="st20" d="M409.36,196.09l0,0.01c0.27,0.18,0.62,0.24,0.97,0.15l2.62-0.73c0.63-0.17,1-0.84,0.83-1.48l-0.19-0.68
					c-0.18-0.64-0.84-1.01-1.48-0.84l-2.61,0.73c-0.64,0.17-1.01,0.84-0.83,1.48l0.17,0.62l0.01,0.01L409.36,196.09z"/>
				<path class="st12" d="M408.77,182.09l-7.67,3.03c-0.62,0.24-1.32-0.06-1.56-0.68l-0.47-1.18c-0.24-0.62,0.06-1.32,0.68-1.56
					l7.67-3.03c0.62-0.24,1.32,0.06,1.56,0.68l0.47,1.18C409.69,181.15,409.39,181.85,408.77,182.09z"/>
				<path class="st21" d="M408.66,181.5l-1.16,0.46c-0.37,0.15-0.79-0.04-0.93-0.4l-0.39-0.98c-0.15-0.37,0.04-0.79,0.4-0.93
					l1.16-0.46c0.37-0.15,0.79,0.04,0.93,0.4l0.39,0.98C409.21,180.94,409.03,181.35,408.66,181.5z"/>
				<path class="st12" d="M417.25,177.56l2.94-1.21c0.62-0.25,0.91-0.96,0.65-1.57l-0.61-1.47c-0.25-0.62-0.96-0.91-1.58-0.65
					l-2.94,1.21c-0.62,0.25-0.91,0.96-0.65,1.58l0.61,1.47C415.93,177.52,416.64,177.81,417.25,177.56z"/>
				<path class="st21" d="M416.62,177.12l0.19-0.08c0.31-0.13,0.45-0.48,0.32-0.78l-0.58-1.4c-0.13-0.31-0.48-0.45-0.78-0.32
					l-0.19,0.08c-0.31,0.13-0.45,0.48-0.32,0.78l0.58,1.4C415.97,177.1,416.32,177.25,416.62,177.12z"/>
				<path class="st12" d="M410.02,187.62l-7.07,2.46c-0.75,0.26-1.57-0.13-1.83-0.88l-0.5-1.43c-0.26-0.75,0.13-1.57,0.88-1.83
					l7.07-2.46c0.75-0.26,1.57,0.13,1.83,0.88l0.5,1.43C411.17,186.54,410.77,187.35,410.02,187.62z"/>
				<path class="st21" d="M410.12,186.83l-1.1,0.38c-0.37,0.13-0.78-0.07-0.92-0.44l-0.51-1.45c-0.13-0.37,0.07-0.78,0.44-0.92
					l1.1-0.38c0.37-0.13,0.78,0.07,0.92,0.44l0.51,1.45C410.7,186.29,410.5,186.7,410.12,186.83z"/>
				<path class="st12" d="M411.6,191.45l-5.09,1.77c-0.63,0.22-1.32-0.11-1.54-0.74l-0.42-1.2c-0.22-0.63,0.11-1.32,0.74-1.54
					l5.09-1.77c0.63-0.22,1.32,0.11,1.54,0.74l0.42,1.2C412.56,190.54,412.23,191.23,411.6,191.45z"/>
				<path class="st21" d="M411.61,190.82l-0.5,0.17c-0.37,0.13-0.78-0.07-0.92-0.44l-0.35-1c-0.13-0.37,0.07-0.78,0.44-0.92
					l0.5-0.17c0.37-0.13,0.78,0.07,0.92,0.44l0.35,1C412.18,190.28,411.98,190.69,411.61,190.82z"/>
				<path class="st12" d="M411.95,195.43l-2.96,0.82c-0.54,0.15-1.11-0.17-1.26-0.71l-0.29-1.04c-0.15-0.54,0.17-1.11,0.71-1.26
					l2.96-0.82c0.54-0.15,1.11,0.17,1.26,0.71l0.29,1.03C412.81,194.71,412.49,195.28,411.95,195.43z"/>
				<path class="st21" d="M412.1,194.87l-0.19,0.05c-0.29,0.08-0.59-0.09-0.67-0.38l-0.27-0.98c-0.08-0.29,0.09-0.59,0.38-0.67
					l0.19-0.05c0.29-0.08,0.59,0.09,0.67,0.38l0.27,0.98C412.56,194.48,412.39,194.78,412.1,194.87z"/>
			</g>
		</g>
		<g>
			<path class="st10" d="M501.64,314.09c1.07,2.3-0.43,4.98-2.97,5.18l-16.48,1.33c-1.46,0.12-2.86-0.65-3.51-1.94
				c-14.59-28.46-16.74-55.3-14.41-76.83c3.08-28.39,13.97-47.58,14.53-49.17l24.98,2.16l2.4,0.21
				c-0.08,0.26-6.38,13.91-10.74,33.84c-1.96,9.02-3.53,19.31-3.95,30.24C490.8,276.73,493.14,295.97,501.64,314.09z"/>
			<path class="st22" d="M501.64,314.09c1.07,2.3-0.43,4.98-2.97,5.18l-16.48,1.33c-1.46,0.12-2.86-0.65-3.51-1.94
				c-14.59-28.46-16.74-55.3-14.41-76.83c0.04,0.04,0.07,0.06,0.11,0.09c2.1,7.71,5.01,14.43,10.25,17.53
				c3.97,2.35,10.2,2.18,16.86-0.34C490.8,276.73,493.14,295.97,501.64,314.09z"/>
		</g>
		<g>
			<g>
				<g>
					<path class="st10" d="M535.22,323.07l-19.75,1.22c-1.53,0.09-2.99-0.72-3.68-2.08c-11.23-21.89-15.99-43.03-17.28-61.58
						c-0.83-11.78-0.27-22.51,0.91-31.76c2.43-19.16,7.52-31.89,8.35-34.06c0.04-0.09,0.06-0.16,0.08-0.22l2.32,0.43l26.06,4.89
						c-0.14,0.4-9.48,31.27-6.4,68.29c1.33,15.94,4.97,33.02,12.64,49.3C539.64,320,537.97,322.89,535.22,323.07z"/>
				</g>
			</g>
			<path class="st22" d="M535.22,323.07l-19.75,1.22c-1.53,0.09-2.99-0.72-3.68-2.08c-11.23-21.89-15.99-43.03-17.28-61.58
				c3.04,6.28,10.08,11.24,14.21,12.55c6.22,1.98,12.32-0.2,17.11-4.98c1.33,15.94,4.97,33.02,12.64,49.3
				C539.64,320,537.97,322.89,535.22,323.07z"/>
		</g>
		<g>
			<path class="st19" d="M537.47,200.48c-0.71,0.86-1.41,1.69-2.12,2.53c-1.01,1.19-3.47,5.42-4.96,5.77
				c-1.49,0.34-5.61-3.02-7.04-3.75c-4.6-2.37-9.46-4.29-14.54-5.34c-10.38-2.12-21.22-1.89-31.7-0.27
				c-0.19,0.02-0.36,0.02-0.54-0.01c-0.59-0.13-1.06-0.62-1.12-1.26c-0.61-6.29-1.2-12.87-0.55-19.19c0.28-2.87,0.82-5.68,1.73-8.38
				c0.89-2.67,2.1-5.17,3.46-7.61c1.69-3.06,3.62-6,5.44-8.99c1.16-1.89,2.28-3.82,3.28-5.81c3.67-7.34,6.18-15.22,7.52-23.32
				c0.59-3.53,1.34-7.09,1.5-10.66c0.01-0.29,0.02-0.88,0-1.63c-0.01-0.28,0-0.56,0.04-0.83c0.32-3.62,3.2-6.49,6.83-6.91
				c0.32-0.04,0.65-0.05,0.99-0.05c8.48,0.09,16.61-1.08,24.96-4.11c0.29-0.11,0.6-0.21,0.94-0.32c1.66-0.51,3.36-0.42,4.88,0.16
				c1.7,0.63,3.19,1.88,4.15,3.56c0.16,0.27,0.33,0.53,0.51,0.79c0.29,0.42,0.58,0.83,0.87,1.26c2.07,3,4.13,6.02,6.1,9.09
				c0.53,0.82,1.06,1.66,1.58,2.49c4.13,6.69,7.75,13.66,9.96,21.18C566.43,162.09,551.67,183.37,537.47,200.48z"/>
			<path class="st15" d="M537.47,200.48c-0.71,0.86-1.41,1.69-2.12,2.53c-1.01,1.19-3.47,5.42-4.96,5.77
				c-1.49,0.34-5.61-3.02-7.04-3.75c-4.6-2.37-9.46-4.29-14.54-5.34c-10.38-2.12-21.22-1.89-31.7-0.27
				c-0.19,0.02-0.36,0.02-0.54-0.01c-0.59-0.13-1.06-0.62-1.12-1.26c-0.61-6.29-1.2-12.87-0.55-19.19c0,0,65.98,17.68,72-43.65
				c0.69-7.09,1.63-12.9,2.76-17.63c4.13,6.69,7.75,13.66,9.96,21.18C566.43,162.09,551.67,183.37,537.47,200.48z"/>
		</g>
		<g>
			<path class="st23" d="M399.4,329.05c-1.52-1.27-1.75-3.52-0.51-5.07c78.55-98.28,104.63-126.15,106.18-126.51
				c1.54-0.36,6.14-1.54,30.82,19.51c1.53,1.31,1.71,3.6,0.41,5.14c-1.3,1.52-3.58,1.71-5.11,0.43c-0.01-0.01-0.02-0.02-0.03-0.02
				c-9.03-7.74-20.47-16.27-24.3-17.71c-7.77,7.07-74.7,89.22-102.27,123.72c-1.26,1.57-3.55,1.83-5.12,0.57
				C399.44,329.09,399.42,329.07,399.4,329.05z M506.16,204.61L506.16,204.61L506.16,204.61z"/>
			<path class="st24" d="M536.3,219.39c-1.3,1.52-3.58,1.71-5.11,0.43c-0.01-0.01-0.02-0.02-0.03-0.02
				c-9.03-7.74-20.47-16.27-24.3-17.71c-7.77,7.07-74.7,89.22-102.27,123.72c-1.26,1.57-3.55,1.83-5.12,0.57
				c-0.02-0.02-0.04-0.04-0.06-0.05c-0.47-0.4-0.81-0.89-1.03-1.43c-0.58,1.43-0.22,3.12,1.03,4.16c0.02,0.02,0.04,0.03,0.06,0.05
				c1.57,1.26,3.87,1,5.12-0.57c27.57-34.5,94.5-116.65,102.27-123.72c3.83,1.45,15.27,9.97,24.3,17.71
				c0.01,0.01,0.02,0.02,0.03,0.02c1.53,1.28,3.81,1.09,5.11-0.43c0.91-1.07,1.09-2.52,0.59-3.73
				C536.74,218.74,536.56,219.08,536.3,219.39z"/>
		</g>
		<g>
			<path class="st12" d="M521.04,204.36l-0.86,0.73l-5.1,4.35c-0.59,0.51-1.48,0.43-2-0.16l-0.36-0.42c-0.51-0.6-0.43-1.49,0.16-2
				l4.56-3.89l1.39-1.19L521.04,204.36z"/>
			<path class="st12" d="M524.28,207.38l-0.54,0.49l-4.54,4.21c-0.68,0.63-1.75,0.59-2.39-0.09l-0.47-0.52
				c-0.63-0.68-0.6-1.75,0.08-2.39l4.06-3.76l1.02-0.94L524.28,207.38z"/>
			<path class="st12" d="M528.72,211.52l-0.14,0.14l-4.3,4.54c-0.42,0.45-1.13,0.46-1.56,0.04l-0.28-0.26
				c-0.45-0.42-0.46-1.13-0.05-1.56l4.14-4.36l0.31-0.32l1.88,1.79H528.72z"/>
			<path class="st12" d="M526.56,209.75l-0.2,0.18l-4.48,4.16c-0.27,0.25-0.62,0.38-0.96,0.38c-0.39,0-0.76-0.15-1.05-0.46
				c-0.53-0.58-0.49-1.47,0.08-2l4.15-3.84l0.53-0.49L526.56,209.75z"/>
			<g>
				<path class="st25" d="M535.59,204.04l-1.25,1.36l-5.63,6.11l-0.13,0.14l-2.06-1.61l-0.16-0.13l-2.26-1.76l-0.36-0.28l-3.26-2.55
					l-0.29-0.24l-2.74-2.13l-0.25-0.2l-2.33-1.81c0.26-0.43,2-2.12,2.23-2.35c0.81-0.78,1.39-1.34,2.28-2.06
					c0.89-0.71,1.82-1.4,2.79-2.06c0.88-0.6,1.79-1.16,2.7-1.67c2.1-1.16,4.36-2.06,6.6-2.59c2.5-0.59,5.74,3.37,7.21,6.47
					C540.15,199.78,535.59,204.04,535.59,204.04z"/>
				<path class="st26" d="M528.71,211.52h0.01l-0.14,0.14l-4.3,4.54c-0.42,0.45-1.13,0.46-1.56,0.04l-0.28-0.26
					c-0.45-0.42-0.46-1.13-0.05-1.56l4.14-4.36l-0.16-0.13l-4.48,4.16c-0.27,0.25-0.62,0.38-0.96,0.38c-0.39,0-0.76-0.15-1.05-0.46
					c-0.53-0.58-0.49-1.47,0.08-2l4.15-3.84l-0.36-0.28l-4.54,4.21c-0.68,0.63-1.75,0.59-2.39-0.09l-0.47-0.52
					c-0.63-0.68-0.6-1.75,0.08-2.39l4.06-3.76l-0.29-0.24l-5.1,4.35c-0.59,0.51-1.48,0.43-2-0.16l-0.36-0.42
					c-0.51-0.6-0.43-1.49,0.16-2l4.56-3.89l-0.25-0.2l-2.33-1.81c0.26-0.43,2-2.12,2.23-2.35c0.81-0.78,1.39-1.34,2.28-2.06
					c0.89-0.71,1.82-1.4,2.79-2.06c-0.22,0.71-0.34,1.46-0.32,2.34c0.06,2.3,0.78,4.7,2.46,6.29c1.67,1.58,4.06,2.16,6.35,2.29
					c1.22,0.07,2.45,0.02,3.68,0L528.71,211.52z"/>
			</g>
		</g>
		<g>
			
				<rect x="524.85" y="194.75" transform="matrix(0.7254 0.6883 -0.6883 0.7254 281.4008 -312.6718)" class="st2" width="15.5" height="3.23"/>
			<path class="st19" d="M573.77,150.53c0.22,14.96-9.19,32.23-30.56,50.58c-1.54,1.33-3.87,1.25-5.3-0.2l-0.43-0.43l-8.99-8.98
				c-1.55-1.55-1.52-4.07,0.07-5.58c8.7-8.24,20.67-20.34,20.5-38.68c-0.12-13.92-9.24-26.7-15.11-33.49
				c-0.85-0.99-1.63-1.85-2.3-2.56c-1.4-1.48-1.42-3.77-0.06-5.29l4.88-5.4l4.1-4.55c1.52-1.68,4.13-1.73,5.7-0.09
				c0.2,0.21,0.41,0.43,0.63,0.67C554.37,104.45,573.43,127.23,573.77,150.53z"/>
		</g>
		<g>
			<path class="st19" d="M376.62,348.06c-0.55,0.2-1.2,0.53-1.21,1.11c-0.01,0.63,0.74,0.96,1.36,1.08c1.37,0.27,2.78,0.34,4.17,0.2
				c0.81-0.08,1.91-0.03,2.06,0.77c0.23,1.22-2.33,1.98-1.64,3.02c0.22,0.33,0.68,0.4,1.08,0.42c7.06,0.41,14.17-1.43,21.16-0.44
				c1.77,0.25,3.62,0.68,5.3,0.06c1.17-0.43,2.11-1.62,2.22-2.78c0.05-0.59,0.51-1.06,1.11-1.06c2.33,0,6.35-1.24,6.4-2.6
				c0.09-2.06-8.67-2.36-9.96-2.58c-0.48-0.08-0.97-0.17-1.38-0.43c-0.58-0.37-0.9-1.02-1.23-1.62c-2.63-4.84-7.89-8.77-13.32-7.86
				c-3.79,0.64-6.67,3.43-8.66,6.56c-0.82,1.29-1.32,3.2-2.48,4.22C380.41,347.19,378.1,347.53,376.62,348.06z"/>
			<path class="st27" d="M384.65,349.53c0.06,0.26,0.07,0.53,0.18,0.77c0.41,0.83,1.62,0.62,2.5,0.32c3.86-1.34,7.92-2.08,12-2.2
				c1.55-0.04,3.19,0.04,4.46,0.92c0.71,0.49,1.53,1.25,2.29,0.84c0.63-0.34,0.64-1.21,0.93-1.86c0.55-1.22,2.42-1.56,3.36-0.61
				c-0.86-1.46-3.18-1.74-4.37-0.54c-0.3,0.3-0.55,0.69-0.93,0.88c-0.7,0.34-1.51-0.1-2.22-0.45c-2.36-1.15-5.14-1.16-7.71-0.61
				c-2.57,0.55-4.99,1.62-7.43,2.58c-0.5,0.2-1.08,0.38-1.55,0.12c-0.34-0.19-0.52-0.56-0.75-0.87c-0.67-0.91-1.97-1.43-3.07-1.16
				C383.28,348.14,384.38,348.28,384.65,349.53z"/>
		</g>
		<g>
			<g>
				<g>
					<path class="st28" d="M496.24,62.81c-0.34,5.65-3.18,10.07-6.36,9.88c-3.18-0.19-5.48-4.92-5.15-10.57
						c0.34-5.65,3.18-10.07,6.36-9.88C494.28,52.44,496.58,57.17,496.24,62.81z"/>
				</g>
				<g>
					<path class="st12" d="M552.91,74c-5.18,14.45-21.14,25.86-35.15,25.86c-17.42,0-28.6-12.24-28.6-31.45c0-2,0.15-3.96,0.46-5.87
						c2.52-16.41,15.47-28.92,31.08-28.92c17.42,0,32.92,10.78,33.9,29.39C554.8,66.78,554.18,70.48,552.91,74z"/>
				</g>
				<g>
					<path d="M507.29,60.29c-0.93,3.62-3.14,5.49-5.14,4.98c-2.01-0.51-3.05-3.21-2.12-6.84c0.93-3.62,3.05-5.16,5.06-4.65
						C507.09,54.3,508.22,56.66,507.29,60.29z"/>
					<path class="st29" d="M504.05,57.58c-0.17,0.79-0.95,1.28-1.74,1.11c-0.79-0.17-1.28-0.95-1.11-1.74
						c0.17-0.79,0.95-1.28,1.74-1.11C503.73,56.01,504.22,56.79,504.05,57.58z"/>
				</g>
				<g>
					<path d="M532,65.75c-0.93,3.62-3.14,5.49-5.14,4.98c-2.01-0.51-3.05-3.21-2.12-6.84c0.93-3.62,3.05-5.16,5.06-4.65
						C531.8,59.76,532.93,62.13,532,65.75z"/>
					<path class="st29" d="M528.76,63.04c-0.17,0.79-0.95,1.28-1.74,1.11c-0.79-0.17-1.28-0.95-1.11-1.74
						c0.17-0.79,0.95-1.28,1.74-1.11C528.44,61.47,528.93,62.25,528.76,63.04z"/>
				</g>
				<path class="st30" d="M515.34,63.38c-0.17,0.25-5.79,6.17-5.88,9.5c-0.08,3.33,4.13,3.88,4.13,3.88"/>
				<path class="st31" d="M508.72,48.01c0,0-0.42,3.29-6.75,2.88"/>
				<path class="st31" d="M527.09,54.38c0,0,0.58,3,6.92,2.58"/>
				<path class="st12" d="M561.48,78.92c-2.22,4.72-8.07,8.26-11.64,6.58c-3.57-1.68-3.5-7.94-1.28-12.66
					c2.22-4.72,6.92-7.19,10.49-5.51C562.61,69,563.7,74.19,561.48,78.92z"/>
				<path class="st32" d="M557.49,75.81c0.73-0.77,1.21-1.77,1.34-2.82c0.03-0.25,0.05-0.52-0.07-0.75
					c-0.29-0.58-1.12-0.53-1.73-0.32c-2.6,0.9-4.57,3.39-4.84,6.13c-0.05,0.47-0.04,0.99,0.22,1.38c0.26,0.4,0.86,0.61,1.23,0.31
					c0.19-0.15,0.29-0.4,0.36-0.63c0.41-1.34,0.37-2.8-0.12-4.12"/>
			</g>
			<g>
				<path class="st15" d="M546.89,96.53c-1.1,3.53-3.6,7.44-5.39,10.52c-2.17,3.75-11.48,8.37-13.67,9.33c-3.07,1.34-16,2-25.36-1.6
					c-1.71-0.66-3.15-1.92-4.62-3.06c-2.12-1.62-4.04-3.49-5.68-5.57c0.47-1.65,1.14-3.63,2-5.13c0.8-1.38,2.65-1.74,3.96-0.81
					c0,0,24.15,3.47,32.49,0.43c0.29-0.11,0.6-0.21,0.94-0.32c1.66-0.51,8.98-4.38,8.98-4.38c1.52-1.68,4.13-1.73,5.7-0.09
					C546.46,96.07,546.67,96.29,546.89,96.53z"/>
				<path class="st2" d="M549.84,80.01c-0.96,1.88-1.13,1.92-1.51,4.09c-0.34,1.94-0.2,3.94-0.59,5.88
					c-0.06,0.27-0.12,0.54-0.18,0.8c-2.46,10.66-8.89,17.27-18.89,21.61c-6.56,2.84-22.63,1.14-27.08-1
					c-6.57-3.15-10.95-8.92-13.58-15.71c-1.8-4.66-2.14-9.93-0.76-14.74c0.12-0.4,0.27-0.79,0.44-1.18
					c0.73-1.68,1.78-3.22,1.48-5.07c-0.28-1.7,0-4.33,0-6.27c0-2,0.15-3.96,0.46-5.87c0.15,1.32,0.59,2.61,0.83,3.91
					c1.14,5.84,3.47,11.81,8.21,15.42c3.62,2.75,7.38,5.41,11.91,6.28c15.26,2.96,26.77-3.66,38.65-11.91
					C550.06,76.94,550.41,78.92,549.84,80.01z"/>
				<path class="st2" d="M526.96,94.49c0.3-0.59,0.32-1.47,0.11-2.88c-1.91-12.92-17.01-17-27.4-11.16c-1.42,0.8-2.87,1.85-3.7,3.29
					c-1.01,1.76-0.31,2.85,0.73,4.41c4.51,6.75,13.24,8.93,20.93,8.61c1.99-0.08,3.97-0.33,5.91-0.74
					C525.42,95.62,526.51,95.38,526.96,94.49z"/>
			</g>
		</g>
	</g>
	<g>
		<path class="st33" d="M641.63,141.15v6.11h-4.12v5.59h-6.37v-5.59h-11.72l13.11-25.05h-2.99l-10.86,20.76h-2.06l11.81-22.58h7.11
			l-13.11,25.05h10.53v5.59h2.73v-5.59h4.12v-2.47h-4.12v-5.89h-2.73v5.89h-6.24l0.95-1.82h3.47v-5.89h6.37v5.89H641.63z"/>
		<path class="st33" d="M653.4,136.62c0,3.94,1.21,10.57,6.37,10.57c5.16,0,6.37-6.63,6.37-10.57c0-0.28,0-0.58-0.02-0.91h4.55
			c-0.22-6.54-3.25-13.98-10.9-13.98c-8.02,0-10.92,8.13-10.92,14.89c0,6.78,2.9,14.86,10.92,14.86c6.67,0,9.86-5.63,10.68-11.48
			h1.84c-0.95,7.35-5.14,13.3-12.52,13.3c-8.49,0-12.74-7.89-12.74-16.68c0-8.75,4.25-16.71,12.74-16.71
			c8.49,0,12.74,7.91,12.74,16.71c0,0.3,0,0.61-0.02,0.91h-4.55c-0.22,5.5-2.45,11.48-8.17,11.48c-6.04,0-8.19-6.67-8.19-12.39
			s2.14-12.42,8.19-12.42c4.85,0,7.22,4.36,7.93,9.04h-1.84c-0.61-3.51-2.25-7.22-6.09-7.22
			C654.62,126.03,653.4,132.68,653.4,136.62z"/>
		<path class="st33" d="M702.95,141.15v6.11h-4.12v5.59h-6.37v-5.59h-11.72l13.11-25.05h-2.99L680,142.97h-2.06l11.81-22.58h7.11
			l-13.11,25.05h10.53v5.59h2.73v-5.59h4.12v-2.47h-4.12v-5.89h-2.73v5.89h-6.24l0.95-1.82h3.47v-5.89h6.37v5.89H702.95z"/>
	</g>
	<path class="st34" d="M502.82,85.78c0,0,10.31-7.15,15.52,3.83"/>
</g>
<g id="DESIGNED_BY_FREEPIK">
</g>
</svg>
