<?xml version="1.0" encoding="utf-8"?>
<!-- Generator: Adobe Illustrator 24.0.0, SVG Export Plug-In . SVG Version: 6.00 Build 0)  -->
<svg version="1.1" id="Layer_1" xmlns="http://www.w3.org/2000/svg" xmlns:xlink="http://www.w3.org/1999/xlink" x="0px" y="0px"
	 viewBox="0 0 864 132" style="enable-background:new 0 0 864 132;" xml:space="preserve">
<style type="text/css">
	.st0{fill:#FFFFFF;}
</style>
<g>
	<path class="st0" d="M82,27.64c5.6,2.52,9.92,6.12,12.96,10.8c3.04,4.68,4.56,10.18,4.56,16.5c0,6.32-1.52,11.8-4.56,16.44
		C91.92,76.02,87.6,79.6,82,82.12c-5.6,2.52-12.2,3.78-19.8,3.78H47.56v21.96H23.8v-84h38.4C69.8,23.86,76.4,25.12,82,27.64z
		 M71.8,64c2.48-2.12,3.72-5.14,3.72-9.06c0-3.92-1.24-6.96-3.72-9.12c-2.48-2.16-6.16-3.24-11.04-3.24h-13.2v24.6h13.2
		C65.64,67.18,69.32,66.12,71.8,64z"/>
	<path class="st0" d="M141.58,103.9c-7.08-3.76-12.64-8.96-16.68-15.6c-4.04-6.64-6.06-14.12-6.06-22.44
		c0-8.32,2.02-15.8,6.06-22.44c4.04-6.64,9.6-11.84,16.68-15.6c7.08-3.76,15.06-5.64,23.94-5.64s16.86,1.88,23.94,5.64
		c7.08,3.76,12.64,8.96,16.68,15.6c4.04,6.64,6.06,14.12,6.06,22.44c0,8.32-2.02,15.8-6.06,22.44c-4.04,6.64-9.6,11.84-16.68,15.6
		c-7.08,3.76-15.06,5.64-23.94,5.64S148.66,107.67,141.58,103.9z M177.04,86.86c3.44-2,6.16-4.82,8.16-8.46c2-3.64,3-7.82,3-12.54
		c0-4.72-1-8.9-3-12.54c-2-3.64-4.72-6.46-8.16-8.46c-3.44-2-7.28-3-11.52-3c-4.24,0-8.08,1-11.52,3c-3.44,2-6.16,4.82-8.16,8.46
		c-2,3.64-3,7.82-3,12.54c0,4.72,1,8.9,3,12.54c2,3.64,4.72,6.46,8.16,8.46c3.44,2,7.28,3,11.52,3
		C169.76,89.86,173.6,88.86,177.04,86.86z"/>
	<path class="st0" d="M272.32,85.54h-12.96v22.32H235.6v-84H274c7.6,0,14.2,1.26,19.8,3.78c5.6,2.52,9.92,6.12,12.96,10.8
		c3.04,4.68,4.56,10.18,4.56,16.5c0,6.08-1.42,11.38-4.26,15.9c-2.84,4.52-6.9,8.06-12.18,10.62l18.12,26.4h-25.44L272.32,85.54z
		 M283.6,45.82c-2.48-2.16-6.16-3.24-11.04-3.24h-13.2v24.6h13.2c4.88,0,8.56-1.06,11.04-3.18c2.48-2.12,3.72-5.14,3.72-9.06
		C287.32,51.02,286.08,47.98,283.6,45.82z"/>
	<path class="st0" d="M352,42.7h-25.8V23.86h75.24V42.7h-25.68v65.16H352V42.7z"/>
	<path class="st0" d="M445,42.22V60.7h37.08v18.36H445v28.8h-23.76v-84h65.88v18.36H445z"/>
	<path class="st0" d="M526.9,103.9c-7.08-3.76-12.64-8.96-16.68-15.6c-4.04-6.64-6.06-14.12-6.06-22.44c0-8.32,2.02-15.8,6.06-22.44
		c4.04-6.64,9.6-11.84,16.68-15.6c7.08-3.76,15.06-5.64,23.94-5.64s16.86,1.88,23.94,5.64c7.08,3.76,12.64,8.96,16.68,15.6
		c4.04,6.64,6.06,14.12,6.06,22.44c0,8.32-2.02,15.8-6.06,22.44c-4.04,6.64-9.6,11.84-16.68,15.6c-7.08,3.76-15.06,5.64-23.94,5.64
		S533.98,107.67,526.9,103.9z M562.36,86.86c3.44-2,6.16-4.82,8.16-8.46c2-3.64,3-7.82,3-12.54c0-4.72-1-8.9-3-12.54
		c-2-3.64-4.72-6.46-8.16-8.46c-3.44-2-7.28-3-11.52-3c-4.24,0-8.08,1-11.52,3c-3.44,2-6.16,4.82-8.16,8.46c-2,3.64-3,7.82-3,12.54
		c0,4.72,1,8.9,3,12.54c2,3.64,4.72,6.46,8.16,8.46c3.44,2,7.28,3,11.52,3C555.08,89.86,558.92,88.86,562.36,86.86z"/>
	<path class="st0" d="M620.92,23.86h23.76v65.16h40.08v18.84h-63.84V23.86z"/>
	<path class="st0" d="M705.03,23.86h23.76v84h-23.76V23.86z"/>
	<path class="st0" d="M775.05,103.9c-7.08-3.76-12.64-8.96-16.68-15.6c-4.04-6.64-6.06-14.12-6.06-22.44
		c0-8.32,2.02-15.8,6.06-22.44c4.04-6.64,9.6-11.84,16.68-15.6c7.08-3.76,15.06-5.64,23.94-5.64s16.86,1.88,23.94,5.64
		c7.08,3.76,12.64,8.96,16.68,15.6c4.04,6.64,6.06,14.12,6.06,22.44c0,8.32-2.02,15.8-6.06,22.44c-4.04,6.64-9.6,11.84-16.68,15.6
		c-7.08,3.76-15.06,5.64-23.94,5.64S782.13,107.67,775.05,103.9z M810.51,86.86c3.44-2,6.16-4.82,8.16-8.46c2-3.64,3-7.82,3-12.54
		c0-4.72-1-8.9-3-12.54c-2-3.64-4.72-6.46-8.16-8.46c-3.44-2-7.28-3-11.52-3c-4.24,0-8.08,1-11.52,3c-3.44,2-6.16,4.82-8.16,8.46
		c-2,3.64-3,7.82-3,12.54c0,4.72,1,8.9,3,12.54c2,3.64,4.72,6.46,8.16,8.46c3.44,2,7.28,3,11.52,3
		C803.23,89.86,807.07,88.86,810.51,86.86z"/>
</g>
<g>
	<path d="M160.79,60.05h-9.63v-5.68h26.23v5.68h-9.63v24.42h-6.97V60.05z"/>
	<path d="M212.18,54.38v30.1h-6.97V72.13h-13.67v12.34h-6.97v-30.1h6.97v11.87h13.67V54.38H212.18z"/>
	<path d="M246.06,78.88v5.59h-23.31v-30.1h22.75v5.59h-15.82v6.54h13.97v5.42h-13.97v6.97H246.06z"/>
	<path d="M255.05,54.38h13.67c3.27,0,6.16,0.62,8.66,1.87c2.51,1.25,4.46,3,5.85,5.27c1.39,2.26,2.09,4.9,2.09,7.91
		c0,3.01-0.7,5.65-2.09,7.91c-1.39,2.26-3.34,4.02-5.85,5.27c-2.51,1.25-5.4,1.87-8.66,1.87h-13.67V54.38z M268.38,78.76
		c3.01,0,5.41-0.84,7.2-2.52c1.79-1.68,2.69-3.95,2.69-6.81c0-2.87-0.9-5.14-2.69-6.82c-1.79-1.68-4.19-2.52-7.2-2.52h-6.36v18.66
		H268.38z"/>
	<path d="M300.09,82.99c-2.48-1.33-4.43-3.18-5.85-5.55s-2.13-5.04-2.13-8.02s0.71-5.65,2.13-8.02c1.42-2.37,3.37-4.21,5.85-5.55
		s5.27-2,8.36-2c2.61,0,4.97,0.46,7.07,1.38c2.11,0.92,3.88,2.24,5.31,3.96l-4.47,4.13c-2.04-2.35-4.56-3.53-7.57-3.53
		c-1.86,0-3.53,0.41-4.99,1.23s-2.6,1.96-3.42,3.42s-1.23,3.13-1.23,4.99c0,1.86,0.41,3.53,1.23,4.99s1.96,2.6,3.42,3.42
		c1.46,0.82,3.12,1.23,4.99,1.23c3.01,0,5.53-1.19,7.57-3.57l4.47,4.13c-1.43,1.75-3.21,3.08-5.33,4c-2.12,0.92-4.49,1.38-7.09,1.38
		C305.34,84.99,302.57,84.32,300.09,82.99z"/>
	<path d="M338.17,48.27h5.98l-14.19,40.51h-5.98L338.17,48.27z"/>
	<path d="M356.23,59.97v7.95h13.93v5.59h-13.93v10.96h-6.97v-30.1h22.75v5.59H356.23z"/>
	<path d="M386,82.97c-2.51-1.35-4.47-3.2-5.89-5.57s-2.13-5.02-2.13-7.98s0.71-5.61,2.13-7.98c1.42-2.37,3.38-4.22,5.89-5.57
		c2.51-1.35,5.32-2.02,8.45-2.02c3.12,0,5.93,0.67,8.43,2.02c2.49,1.35,4.46,3.2,5.89,5.57c1.43,2.36,2.15,5.02,2.15,7.98
		s-0.72,5.61-2.15,7.98c-1.43,2.37-3.4,4.22-5.89,5.57c-2.49,1.35-5.3,2.02-8.43,2.02C391.33,84.99,388.51,84.32,386,82.97z
		 M399.27,77.83c1.43-0.82,2.56-1.96,3.38-3.42s1.23-3.12,1.23-4.99c0-1.86-0.41-3.53-1.23-4.99s-1.94-2.6-3.38-3.42
		c-1.43-0.82-3.04-1.23-4.82-1.23c-1.78,0-3.38,0.41-4.82,1.23c-1.43,0.82-2.56,1.96-3.38,3.42s-1.23,3.13-1.23,4.99
		c0,1.86,0.41,3.53,1.23,4.99s1.94,2.6,3.38,3.42c1.43,0.82,3.04,1.23,4.82,1.23C396.23,79.06,397.83,78.65,399.27,77.83z"/>
	<path d="M425.41,60.05h-9.63v-5.68h26.23v5.68h-9.63v24.42h-6.97V60.05z"/>
	<path d="M454.89,82.97c-2.51-1.35-4.47-3.2-5.89-5.57s-2.13-5.02-2.13-7.98s0.71-5.61,2.13-7.98c1.42-2.37,3.38-4.22,5.89-5.57
		c2.51-1.35,5.32-2.02,8.45-2.02c3.12,0,5.93,0.67,8.43,2.02c2.49,1.35,4.46,3.2,5.89,5.57c1.43,2.36,2.15,5.02,2.15,7.98
		s-0.72,5.61-2.15,7.98c-1.43,2.37-3.4,4.22-5.89,5.57c-2.49,1.35-5.3,2.02-8.43,2.02C460.21,84.99,457.4,84.32,454.89,82.97z
		 M468.15,77.83c1.43-0.82,2.56-1.96,3.38-3.42s1.23-3.12,1.23-4.99c0-1.86-0.41-3.53-1.23-4.99s-1.94-2.6-3.38-3.42
		c-1.43-0.82-3.04-1.23-4.82-1.23c-1.78,0-3.38,0.41-4.82,1.23c-1.43,0.82-2.56,1.96-3.38,3.42s-1.23,3.13-1.23,4.99
		c0,1.86,0.41,3.53,1.23,4.99s1.94,2.6,3.38,3.42c1.43,0.82,3.04,1.23,4.82,1.23C465.12,79.06,466.72,78.65,468.15,77.83z"/>
	<path d="M508.83,68.95h6.36v12.21c-1.63,1.23-3.53,2.18-5.68,2.84c-2.15,0.66-4.31,0.99-6.49,0.99c-3.13,0-5.93-0.67-8.43-2
		c-2.49-1.33-4.45-3.18-5.87-5.55s-2.13-5.04-2.13-8.02s0.71-5.65,2.13-8.02c1.42-2.37,3.39-4.21,5.91-5.55s5.36-2,8.51-2
		c2.64,0,5.03,0.44,7.18,1.33c2.15,0.89,3.96,2.18,5.42,3.87l-4.47,4.13c-2.15-2.26-4.74-3.4-7.78-3.4c-1.92,0-3.63,0.4-5.12,1.2
		c-1.49,0.8-2.65,1.94-3.48,3.4c-0.83,1.46-1.25,3.14-1.25,5.03c0,1.86,0.42,3.53,1.25,4.99c0.83,1.46,1.98,2.6,3.46,3.42
		c1.48,0.82,3.16,1.23,5.05,1.23c2.01,0,3.81-0.43,5.42-1.29V68.95z"/>
	<path d="M544.91,78.02h-13.98l-2.67,6.45h-7.14l13.42-30.1h6.88l13.46,30.1h-7.31L544.91,78.02z M542.72,72.74l-4.77-11.52
		l-4.77,11.52H542.72z"/>
	<path d="M561.46,54.38h6.97V78.8h15.09v5.68h-22.06V54.38z"/>
	<path d="M590.88,54.38h6.97V78.8h15.09v5.68h-22.06V54.38z"/>
	<path d="M643.59,78.88v5.59h-23.31v-30.1h22.75v5.59h-15.82v6.54h13.97v5.42h-13.97v6.97H643.59z"/>
	<path d="M671.76,84.47l-5.8-8.38h-0.34h-6.06v8.38h-6.97v-30.1h13.03c2.67,0,4.98,0.44,6.95,1.33c1.96,0.89,3.48,2.15,4.54,3.78
		c1.06,1.63,1.59,3.57,1.59,5.8c0,2.24-0.54,4.16-1.61,5.78c-1.08,1.62-2.6,2.86-4.58,3.72l6.75,9.67H671.76z M670,61.41
		c-1.09-0.9-2.68-1.35-4.77-1.35h-5.68v10.49h5.68c2.09,0,3.68-0.46,4.77-1.38c1.09-0.92,1.63-2.21,1.63-3.87
		C671.63,63.61,671.08,62.31,670,61.41z"/>
	<path d="M701.64,73.81v10.66h-6.97V73.73l-11.65-19.35h7.4l8.04,13.37l8.04-13.37h6.84L701.64,73.81z"/>
</g>
</svg>
