<svg id="Layer_1" data-name="Layer 1" xmlns="http://www.w3.org/2000/svg" viewBox="0 0 542.34 213.91"><defs><style>.cls-1{font-size:91.25px;font-family:FelixTitlingMT, Felix Titling;}</style></defs><title>logo</title><path d="M167.16,119.59c-.21.9-.39,1.81-.64,2.71a47.48,47.48,0,0,1-18.7,26.76,49.34,49.34,0,0,1-21.71,8.78,46,46,0,0,1-17.23-.56,17.52,17.52,0,0,1-4.51-1.78,32.14,32.14,0,0,1-15.14-17.28A30.79,30.79,0,0,1,87.43,125c0-.11,0-.22,0-.51-.25.33-.42.53-.57.74-2.74,3.92-5.48,7.85-8.24,11.75a1.73,1.73,0,0,0-.35,1.25c.38,3.29.69,6.59,1.15,9.87a160,160,0,0,0,3.92,19.36,127.77,127.77,0,0,0,11.57,29.39,75.43,75.43,0,0,0,12.35,16.85c1.78,1.79,3.75,3.38,5.64,5.06a.79.79,0,0,1,.3.42l-.79-.37A56.94,56.94,0,0,1,97.85,208,89.38,89.38,0,0,1,82,185.49a136,136,0,0,1-11.24-31.17c-.4-1.69-.74-3.41-1.12-5.11a4.68,4.68,0,0,0-.2-.63c-.3.32-.54.57-.77.83A62.2,62.2,0,0,1,52.68,162.3a47.43,47.43,0,0,1-15.63,5.63,37.34,37.34,0,0,1-15.85-.47,23.64,23.64,0,0,1-5.76-2.32A24.68,24.68,0,0,1,3.69,150.42a27.78,27.78,0,0,1-.47-13.13,43.38,43.38,0,0,1,8.85-18.76,72.31,72.31,0,0,1,15.45-14.44A117.76,117.76,0,0,1,54.27,90.16c4.39-1.66,8.85-3.1,13.38-4.35l.83-.25c.25-1.38.5-2.77.76-4.15A141.39,141.39,0,0,1,81.07,45.05,92.73,92.73,0,0,1,96.18,22.57a58.31,58.31,0,0,1,16.9-12.93,42.4,42.4,0,0,1,16.28-4.36,4.86,4.86,0,0,1,.54,0c.06,0,.11,0,.25.11,0,.45.06,1,.07,1.46a112.54,112.54,0,0,1-1.45,18.79,203.2,203.2,0,0,1-12.11,42.81c-1.37,3.5-2.88,7-4.33,10.42-.07.16-.13.33-.23.58.28,0,.51.06.73.06,3.25,0,6.5.06,9.75.16a142.39,142.39,0,0,1,14.57,1.22c2.44.33,4.87.73,7.32,1.08,1.9.27,3.82.45,5.72.77a39.3,39.3,0,0,1,7.8,2.18.82.82,0,0,1,.44.35c-.61-.09-1.22-.19-1.84-.26-3.25-.4-6.5-.81-9.76-1.17a19.22,19.22,0,0,0-6,.57,52.77,52.77,0,0,0-30.35,17.92,34.6,34.6,0,0,0-7.36,13.84,20.7,20.7,0,0,0,.35,12.53,18.1,18.1,0,0,0,8.54,9.78,25.72,25.72,0,0,0,9.31,3,42.69,42.69,0,0,0,21.4-3,52.31,52.31,0,0,0,21.91-15.86c.91-1.11,1.69-2.33,2.53-3.5ZM67.16,95.3c-.35.11-.55.15-.74.23a115.53,115.53,0,0,0-26.51,15.09,74.86,74.86,0,0,0-15.42,15.77,32.2,32.2,0,0,0-5.55,13.19,26.27,26.27,0,0,0-.05,8.44A25.83,25.83,0,0,0,20,152.29a18.86,18.86,0,0,0,4,7.18A11,11,0,0,0,30.68,163a13.92,13.92,0,0,0,6.73-.88,30,30,0,0,0,8.91-5.41A70.25,70.25,0,0,0,57.82,144c.28-.39.59-.77.89-1.14,2.64-3.24,5.27-6.49,7.93-9.73a1.76,1.76,0,0,0,.4-1.41c-.18-1.79-.35-3.59-.46-5.39-.3-4.72-.45-9.44-.38-14.17.07-4.43.26-8.85.66-13.26C67,97.78,67.05,96.61,67.16,95.3ZM122.3,17.86l-.18-.18c-1.36.69-2.75,1.34-4.07,2.1A51.83,51.83,0,0,0,104.4,31.33a87.79,87.79,0,0,0-12.22,19A140,140,0,0,0,81.57,81.82c0,.22-.07.45-.11.78l1-.16c5-.89,10.09-1.62,15.19-2.06a1.35,1.35,0,0,0,1.3-.88c2.53-5.58,5.19-11.12,7.63-16.75a324.71,324.71,0,0,0,14.82-41.43C121.69,20.17,122,19,122.3,17.86ZM95.08,86.93A128.7,128.7,0,0,0,80,90.66c-1.09,3.49-2.92,24.94-2.25,26.63A320,320,0,0,0,95.08,86.93Zm32.81-3.53,0-.17h-1.07c-5.42.1-10.81.52-16.19,1.1a1.24,1.24,0,0,0-1.14.81c-1.32,2.77-2.68,5.51-4,8.27-.13.25-.24.51-.36.77A62.52,62.52,0,0,1,127.89,83.4Z" transform="translate(-2.65 -5.27)"/><text class="cls-1" transform="translate(197.2 141.82)">THE/DC</text></svg>